<svg xmlns="http://www.w3.org/2000/svg" width="24" height="24" viewBox="0 0 24 24" fill="#141719">
    <path
        fill-rule="evenodd"
        clip-rule="evenodd"
        d="M6.2929 6.2929C6.6834 5.90237 7.3166 5.90237 7.7071 6.2929L12 10.5858L16.2929 6.2929C16.6834 5.90237 17.3166 5.90237 17.7071 6.2929C18.0976 6.6834 18.0976 7.3166 17.7071 7.7071L13.4142 12L17.7071 16.2929C18.0976 16.6834 18.0976 17.3166 17.7071 17.7071C17.3166 18.0976 16.6834 18.0976 16.2929 17.7071L12 13.4142L7.7071 17.7071C7.3166 18.0976 6.6834 18.0976 6.2929 17.7071C5.90237 17.3166 5.90237 16.6834 6.2929 16.2929L10.5858 12L6.2929 7.7071C5.90237 7.3166 5.90237 6.6834 6.2929 6.2929Z"
        fill="#141719"
    />
</svg>
