<svg width="40" height="40" viewBox="0 0 40 40" fill="none" xmlns="http://www.w3.org/2000/svg">
<circle opacity="0.8" cx="20" cy="20" r="20" fill="#6F787B"/>
<path d="M16.5066 26.6673H23.4933C25.3333 26.6673 26.0666 25.5407 26.1533 24.1673L26.4999 18.6607C26.5933 17.2207 25.4466 16.0007 23.9999 16.0007C23.5933 16.0007 23.2199 15.7673 23.0333 15.4073L22.5533 14.4407C22.2466 13.834 21.4466 13.334 20.7666 13.334H19.2399C18.5533 13.334 17.7533 13.834 17.4466 14.4407L16.9666 15.4073C16.7799 15.7673 16.4066 16.0007 15.9999 16.0007C14.5533 16.0007 13.4066 17.2207 13.4999 18.6607L13.8466 24.1673C13.9266 25.5407 14.6666 26.6673 16.5066 26.6673Z" stroke="white" stroke-width="1.2" stroke-linecap="round" stroke-linejoin="round"/>
<path d="M19 17.334H21" stroke="white" stroke-width="1.2" stroke-linecap="round" stroke-linejoin="round"/>
<path d="M19.9999 23.9993C21.1933 23.9993 22.1666 23.026 22.1666 21.8327C22.1666 20.6393 21.1933 19.666 19.9999 19.666C18.8066 19.666 17.8333 20.6393 17.8333 21.8327C17.8333 23.026 18.8066 23.9993 19.9999 23.9993Z" stroke="white" stroke-width="1.2" stroke-linecap="round" stroke-linejoin="round"/>
</svg>
